# xmcd
#
# Track frame offsets:
#	150
#	17515
#	31334
#	55220
#	80369
#	104242
#	123608
#	142379
#	160959
#	177463
#	201560
#	225655
#
# Disc length: 3333 seconds
#
# Revision: 1
# Processed by: cddbd v1.5.1PL0 Copyright (c) Steve Scherf et al.
# Submitted via: audiograbber 1.82.02
#
DISCID=b10d030c
DTITLE=Big Gilson - Puro Feeling
DYEAR=2004
DGENRE=Blues
TTITLE0=Puro Feeling
TTITLE1=Baby Please Don't Go
TTITLE2=Fechada pra Mim
TTITLE3=The one and only one
TTITLE4=Let me be free
TTITLE5=945/106 blues
TTITLE6=Mr. Freeze
TTITLE7=Dog face baby
TTITLE8=Não lembre de chorar
TTITLE9=Hey now baby
TTITLE10=Lully
TTITLE11=Panos e PLanos
EXTD=
EXTT0=
EXTT1=
EXTT2=
EXTT3=
EXTT4=
EXTT5=
EXTT6=
EXTT7=
EXTT8=
EXTT9=
EXTT10=
EXTT11=
PLAYORDER=
